<svg xmlns="http://www.w3.org/2000/svg" xmlns:xlink="http://www.w3.org/1999/xlink" viewBox="0 0 288 288"><defs><style>.cls-1{fill:#fff;}.cls-2{clip-path:url(#clip-path);}</style><clipPath id="clip-path"><rect class="cls-1" width="288" height="288"/></clipPath></defs><g id="Layer_2" data-name="Layer 2"><g id="Layer_1-2" data-name="Layer 1"><rect class="cls-1" width="288" height="288"/><g class="cls-2"><path d="M11.61,1.27A1.28,1.28,0,0,0,12.88,0a1.27,1.27,0,0,0-1.27-1.28A1.28,1.28,0,0,0,10.33,0,1.28,1.28,0,0,0,11.61,1.27Z"/><path d="M26,1.27A1.28,1.28,0,0,0,27.28,0,1.27,1.27,0,0,0,26-1.29,1.28,1.28,0,0,0,24.73,0,1.28,1.28,0,0,0,26,1.27Z"/><path d="M40.41,1.27A1.28,1.28,0,0,0,41.68,0a1.27,1.27,0,0,0-1.27-1.28A1.28,1.28,0,0,0,39.13,0,1.28,1.28,0,0,0,40.41,1.27Z"/><path d="M54.81,1.27A1.28,1.28,0,0,0,56.08,0a1.27,1.27,0,0,0-1.27-1.28A1.28,1.28,0,0,0,53.53,0,1.28,1.28,0,0,0,54.81,1.27Z"/><circle cx="69.21" cy="-0.01" r="1.28"/><path d="M83.61,1.27A1.28,1.28,0,0,0,84.88,0a1.27,1.27,0,0,0-1.27-1.28A1.28,1.28,0,0,0,82.33,0,1.28,1.28,0,0,0,83.61,1.27Z"/><path d="M98,1.27A1.28,1.28,0,0,0,99.28,0,1.27,1.27,0,0,0,98-1.29,1.28,1.28,0,0,0,96.73,0,1.28,1.28,0,0,0,98,1.27Z"/><path d="M112.41,1.27A1.28,1.28,0,0,0,113.68,0a1.27,1.27,0,0,0-1.27-1.28A1.28,1.28,0,0,0,111.13,0,1.28,1.28,0,0,0,112.41,1.27Z"/><path d="M126.81,1.27A1.28,1.28,0,0,0,128.08,0a1.27,1.27,0,0,0-1.27-1.28A1.28,1.28,0,0,0,125.53,0,1.28,1.28,0,0,0,126.81,1.27Z"/><circle cx="141.21" cy="-0.01" r="1.28"/><path d="M155.61,1.27A1.28,1.28,0,0,0,156.88,0a1.27,1.27,0,0,0-1.27-1.28A1.28,1.28,0,0,0,154.33,0,1.28,1.28,0,0,0,155.61,1.27Z"/><path d="M170,1.27A1.28,1.28,0,0,0,171.28,0,1.27,1.27,0,0,0,170-1.29,1.28,1.28,0,0,0,168.73,0,1.28,1.28,0,0,0,170,1.27Z"/><path d="M184.41,1.27A1.28,1.28,0,0,0,185.68,0a1.27,1.27,0,0,0-1.27-1.28A1.28,1.28,0,0,0,183.13,0,1.28,1.28,0,0,0,184.41,1.27Z"/><path d="M198.81,1.27A1.28,1.28,0,0,0,200.08,0a1.27,1.27,0,0,0-1.27-1.28A1.28,1.28,0,0,0,197.53,0,1.28,1.28,0,0,0,198.81,1.27Z"/><circle cx="213.21" cy="-0.01" r="1.28"/><path d="M227.61,1.27A1.28,1.28,0,0,0,228.88,0a1.27,1.27,0,0,0-1.27-1.28A1.28,1.28,0,0,0,226.33,0,1.28,1.28,0,0,0,227.61,1.27Z"/><path d="M242,1.27A1.28,1.28,0,0,0,243.28,0,1.27,1.27,0,0,0,242-1.29,1.28,1.28,0,0,0,240.73,0,1.28,1.28,0,0,0,242,1.27Z"/><path d="M256.41,1.27A1.28,1.28,0,0,0,257.68,0a1.27,1.27,0,0,0-1.27-1.28A1.28,1.28,0,0,0,255.13,0,1.28,1.28,0,0,0,256.41,1.27Z"/><path d="M270.81,1.27A1.28,1.28,0,0,0,272.08,0a1.27,1.27,0,0,0-1.27-1.28A1.28,1.28,0,0,0,269.53,0,1.28,1.28,0,0,0,270.81,1.27Z"/><circle cx="285.21" cy="-0.01" r="1.28"/><path d="M4.41,15.67a1.28,1.28,0,1,0-1.28-1.28A1.28,1.28,0,0,0,4.41,15.67Z"/><path d="M18.81,15.67a1.28,1.28,0,1,0-1.28-1.28A1.28,1.28,0,0,0,18.81,15.67Z"/><path d="M33.21,15.67a1.28,1.28,0,1,0-1.28-1.28A1.28,1.28,0,0,0,33.21,15.67Z"/><path d="M47.61,15.67a1.28,1.28,0,1,0-1.28-1.28A1.28,1.28,0,0,0,47.61,15.67Z"/><path d="M62,15.67a1.28,1.28,0,1,0-1.28-1.28A1.28,1.28,0,0,0,62,15.67Z"/><path d="M76.41,15.67a1.28,1.28,0,1,0-1.28-1.28A1.28,1.28,0,0,0,76.41,15.67Z"/><path d="M90.81,15.67a1.28,1.28,0,1,0-1.28-1.28A1.28,1.28,0,0,0,90.81,15.67Z"/><path d="M105.21,15.67a1.28,1.28,0,1,0-1.28-1.28A1.28,1.28,0,0,0,105.21,15.67Z"/><path d="M119.61,15.67a1.28,1.28,0,1,0-1.28-1.28A1.28,1.28,0,0,0,119.61,15.67Z"/><path d="M134,15.67a1.28,1.28,0,1,0-1.28-1.28A1.28,1.28,0,0,0,134,15.67Z"/><path d="M148.41,15.67a1.28,1.28,0,1,0-1.28-1.28A1.28,1.28,0,0,0,148.41,15.67Z"/><path d="M162.81,15.67a1.28,1.28,0,1,0-1.28-1.28A1.28,1.28,0,0,0,162.81,15.67Z"/><path d="M177.21,15.67a1.28,1.28,0,1,0-1.28-1.28A1.28,1.28,0,0,0,177.21,15.67Z"/><path d="M191.61,15.67a1.28,1.28,0,1,0-1.28-1.28A1.28,1.28,0,0,0,191.61,15.67Z"/><path d="M206,15.67a1.28,1.28,0,1,0-1.28-1.28A1.28,1.28,0,0,0,206,15.67Z"/><path d="M220.41,15.67a1.28,1.28,0,1,0-1.28-1.28A1.28,1.28,0,0,0,220.41,15.67Z"/><path d="M234.81,15.67a1.28,1.28,0,1,0-1.28-1.28A1.28,1.28,0,0,0,234.81,15.67Z"/><path d="M249.21,15.67a1.28,1.28,0,1,0-1.28-1.28A1.28,1.28,0,0,0,249.21,15.67Z"/><path d="M263.61,15.67a1.28,1.28,0,1,0-1.28-1.28A1.28,1.28,0,0,0,263.61,15.67Z"/><path d="M278,15.67a1.28,1.28,0,1,0-1.28-1.28A1.28,1.28,0,0,0,278,15.67Z"/><path d="M11.61,30.07a1.28,1.28,0,1,0-1.28-1.28A1.28,1.28,0,0,0,11.61,30.07Z"/><path d="M26,30.07a1.28,1.28,0,1,0-1.28-1.28A1.28,1.28,0,0,0,26,30.07Z"/><path d="M40.41,30.07a1.28,1.28,0,1,0-1.28-1.28A1.28,1.28,0,0,0,40.41,30.07Z"/><path d="M54.81,30.07a1.28,1.28,0,1,0-1.28-1.28A1.28,1.28,0,0,0,54.81,30.07Z"/><path d="M69.21,30.07a1.28,1.28,0,1,0-1.28-1.28A1.28,1.28,0,0,0,69.21,30.07Z"/><path d="M83.61,30.07a1.28,1.28,0,1,0-1.28-1.28A1.28,1.28,0,0,0,83.61,30.07Z"/><path d="M98,30.07a1.28,1.28,0,1,0-1.28-1.28A1.28,1.28,0,0,0,98,30.07Z"/><path d="M112.41,30.07a1.28,1.28,0,1,0-1.28-1.28A1.28,1.28,0,0,0,112.41,30.07Z"/><path d="M126.81,30.07a1.28,1.28,0,1,0-1.28-1.28A1.28,1.28,0,0,0,126.81,30.07Z"/><path d="M141.21,30.07a1.28,1.28,0,1,0-1.28-1.28A1.28,1.28,0,0,0,141.21,30.07Z"/><path d="M155.61,30.07a1.28,1.28,0,1,0-1.28-1.28A1.28,1.28,0,0,0,155.61,30.07Z"/><path d="M170,30.07a1.28,1.28,0,1,0-1.28-1.28A1.28,1.28,0,0,0,170,30.07Z"/><path d="M184.41,30.07a1.28,1.28,0,1,0-1.28-1.28A1.28,1.28,0,0,0,184.41,30.07Z"/><path d="M198.81,30.07a1.28,1.28,0,1,0-1.28-1.28A1.28,1.28,0,0,0,198.81,30.07Z"/><path d="M213.21,30.07a1.28,1.28,0,1,0-1.28-1.28A1.28,1.28,0,0,0,213.21,30.07Z"/><path d="M227.61,30.07a1.28,1.28,0,1,0-1.28-1.28A1.28,1.28,0,0,0,227.61,30.07Z"/><path d="M242,30.07a1.28,1.28,0,1,0-1.28-1.28A1.28,1.28,0,0,0,242,30.07Z"/><path d="M256.41,30.07a1.28,1.28,0,1,0-1.28-1.28A1.28,1.28,0,0,0,256.41,30.07Z"/><path d="M270.81,30.07a1.28,1.28,0,1,0-1.28-1.28A1.28,1.28,0,0,0,270.81,30.07Z"/><path d="M285.21,30.07a1.28,1.28,0,1,0-1.28-1.28A1.28,1.28,0,0,0,285.21,30.07Z"/><path d="M4.41,44.47a1.28,1.28,0,1,0-1.28-1.28A1.28,1.28,0,0,0,4.41,44.47Z"/><path d="M18.81,44.47a1.28,1.28,0,1,0-1.28-1.28A1.28,1.28,0,0,0,18.81,44.47Z"/><path d="M33.21,44.47a1.28,1.28,0,1,0-1.28-1.28A1.28,1.28,0,0,0,33.21,44.47Z"/><path d="M47.61,44.47a1.28,1.28,0,1,0-1.28-1.28A1.28,1.28,0,0,0,47.61,44.47Z"/><path d="M62,44.47a1.28,1.28,0,1,0-1.28-1.28A1.28,1.28,0,0,0,62,44.47Z"/><path d="M76.41,44.47a1.28,1.28,0,1,0-1.28-1.28A1.28,1.28,0,0,0,76.41,44.47Z"/><path d="M90.81,44.47a1.28,1.28,0,1,0-1.28-1.28A1.28,1.28,0,0,0,90.81,44.47Z"/><path d="M105.21,44.47a1.28,1.28,0,1,0-1.28-1.28A1.28,1.28,0,0,0,105.21,44.47Z"/><path d="M119.61,44.47a1.28,1.28,0,1,0-1.28-1.28A1.28,1.28,0,0,0,119.61,44.47Z"/><path d="M134,44.47a1.28,1.28,0,1,0-1.28-1.28A1.28,1.28,0,0,0,134,44.47Z"/><path d="M148.41,44.47a1.28,1.28,0,1,0-1.28-1.28A1.28,1.28,0,0,0,148.41,44.47Z"/><path d="M162.81,44.47a1.28,1.28,0,1,0-1.28-1.28A1.28,1.28,0,0,0,162.81,44.47Z"/><path d="M177.21,44.47a1.28,1.28,0,1,0-1.28-1.28A1.28,1.28,0,0,0,177.21,44.47Z"/><path d="M191.61,44.47a1.28,1.28,0,1,0-1.28-1.28A1.28,1.28,0,0,0,191.61,44.47Z"/><path d="M206,44.47a1.28,1.28,0,1,0-1.28-1.28A1.28,1.28,0,0,0,206,44.47Z"/><path d="M220.41,44.47a1.28,1.28,0,1,0-1.28-1.28A1.28,1.28,0,0,0,220.41,44.47Z"/><path d="M234.81,44.47a1.28,1.28,0,1,0-1.28-1.28A1.28,1.28,0,0,0,234.81,44.47Z"/><path d="M249.21,44.47a1.28,1.28,0,1,0-1.28-1.28A1.28,1.28,0,0,0,249.21,44.47Z"/><path d="M263.61,44.47a1.28,1.28,0,1,0-1.28-1.28A1.28,1.28,0,0,0,263.61,44.47Z"/><path d="M278,44.47a1.28,1.28,0,1,0-1.28-1.28A1.28,1.28,0,0,0,278,44.47Z"/><path d="M11.61,58.87a1.28,1.28,0,1,0-1.28-1.28A1.28,1.28,0,0,0,11.61,58.87Z"/><path d="M26,58.87a1.28,1.28,0,1,0-1.28-1.28A1.28,1.28,0,0,0,26,58.87Z"/><path d="M40.41,58.87a1.28,1.28,0,1,0-1.28-1.28A1.28,1.28,0,0,0,40.41,58.87Z"/><path d="M54.81,58.87a1.28,1.28,0,1,0-1.28-1.28A1.28,1.28,0,0,0,54.81,58.87Z"/><circle cx="69.21" cy="57.59" r="1.28"/><path d="M83.61,58.87a1.28,1.28,0,1,0-1.28-1.28A1.28,1.28,0,0,0,83.61,58.87Z"/><path d="M98,58.87a1.28,1.28,0,1,0-1.28-1.28A1.28,1.28,0,0,0,98,58.87Z"/><path d="M112.41,58.87a1.28,1.28,0,1,0-1.28-1.28A1.28,1.28,0,0,0,112.41,58.87Z"/><path d="M126.81,58.87a1.28,1.28,0,1,0-1.28-1.28A1.28,1.28,0,0,0,126.81,58.87Z"/><circle cx="141.21" cy="57.59" r="1.28"/><path d="M155.61,58.87a1.28,1.28,0,1,0-1.28-1.28A1.28,1.28,0,0,0,155.61,58.87Z"/><path d="M170,58.87a1.28,1.28,0,1,0-1.28-1.28A1.28,1.28,0,0,0,170,58.87Z"/><path d="M184.41,58.87a1.28,1.28,0,1,0-1.28-1.28A1.28,1.28,0,0,0,184.41,58.87Z"/><path d="M198.81,58.87a1.28,1.28,0,1,0-1.28-1.28A1.28,1.28,0,0,0,198.81,58.87Z"/><circle cx="213.21" cy="57.59" r="1.28"/><path d="M227.61,58.87a1.28,1.28,0,1,0-1.28-1.28A1.28,1.28,0,0,0,227.61,58.87Z"/><path d="M242,58.87a1.28,1.28,0,1,0-1.28-1.28A1.28,1.28,0,0,0,242,58.87Z"/><path d="M256.41,58.87a1.28,1.28,0,1,0-1.28-1.28A1.28,1.28,0,0,0,256.41,58.87Z"/><path d="M270.81,58.87a1.28,1.28,0,1,0-1.28-1.28A1.28,1.28,0,0,0,270.81,58.87Z"/><circle cx="285.21" cy="57.59" r="1.28"/><path d="M4.41,73.27A1.28,1.28,0,1,0,3.13,72,1.28,1.28,0,0,0,4.41,73.27Z"/><path d="M18.81,73.27A1.28,1.28,0,1,0,17.53,72,1.28,1.28,0,0,0,18.81,73.27Z"/><circle cx="33.21" cy="71.99" r="1.28"/><path d="M47.61,73.27A1.28,1.28,0,1,0,46.33,72,1.28,1.28,0,0,0,47.61,73.27Z"/><path d="M62,73.27A1.28,1.28,0,1,0,60.73,72,1.28,1.28,0,0,0,62,73.27Z"/><path d="M76.41,73.27A1.28,1.28,0,1,0,75.13,72,1.28,1.28,0,0,0,76.41,73.27Z"/><path d="M90.81,73.27A1.28,1.28,0,1,0,89.53,72,1.28,1.28,0,0,0,90.81,73.27Z"/><circle cx="105.21" cy="71.99" r="1.28"/><path d="M119.61,73.27A1.28,1.28,0,1,0,118.33,72,1.28,1.28,0,0,0,119.61,73.27Z"/><path d="M134,73.27A1.28,1.28,0,1,0,132.73,72,1.28,1.28,0,0,0,134,73.27Z"/><path d="M148.41,73.27A1.28,1.28,0,1,0,147.13,72,1.28,1.28,0,0,0,148.41,73.27Z"/><path d="M162.81,73.27A1.28,1.28,0,1,0,161.53,72,1.28,1.28,0,0,0,162.81,73.27Z"/><circle cx="177.21" cy="71.99" r="1.28"/><path d="M191.61,73.27A1.28,1.28,0,1,0,190.33,72,1.28,1.28,0,0,0,191.61,73.27Z"/><path d="M206,73.27A1.28,1.28,0,1,0,204.73,72,1.28,1.28,0,0,0,206,73.27Z"/><path d="M220.41,73.27A1.28,1.28,0,1,0,219.13,72,1.28,1.28,0,0,0,220.41,73.27Z"/><path d="M234.81,73.27A1.28,1.28,0,1,0,233.53,72,1.28,1.28,0,0,0,234.81,73.27Z"/><circle cx="249.21" cy="71.99" r="1.28"/><path d="M263.61,73.27A1.28,1.28,0,1,0,262.33,72,1.28,1.28,0,0,0,263.61,73.27Z"/><path d="M278,73.27A1.28,1.28,0,1,0,276.73,72,1.28,1.28,0,0,0,278,73.27Z"/><path d="M11.61,87.67a1.28,1.28,0,1,0-1.28-1.28A1.28,1.28,0,0,0,11.61,87.67Z"/><path d="M26,87.67a1.28,1.28,0,1,0-1.28-1.28A1.28,1.28,0,0,0,26,87.67Z"/><path d="M40.41,87.67a1.28,1.28,0,1,0-1.28-1.28A1.28,1.28,0,0,0,40.41,87.67Z"/><path d="M54.81,87.67a1.28,1.28,0,1,0-1.28-1.28A1.28,1.28,0,0,0,54.81,87.67Z"/><path d="M69.21,87.67a1.28,1.28,0,1,0-1.28-1.28A1.28,1.28,0,0,0,69.21,87.67Z"/><path d="M83.61,87.67a1.28,1.28,0,1,0-1.28-1.28A1.28,1.28,0,0,0,83.61,87.67Z"/><path d="M98,87.67a1.28,1.28,0,1,0-1.28-1.28A1.28,1.28,0,0,0,98,87.67Z"/><path d="M112.41,87.67a1.28,1.28,0,1,0-1.28-1.28A1.28,1.28,0,0,0,112.41,87.67Z"/><path d="M126.81,87.67a1.28,1.28,0,1,0-1.28-1.28A1.28,1.28,0,0,0,126.81,87.67Z"/><path d="M141.21,87.67a1.28,1.28,0,1,0-1.28-1.28A1.28,1.28,0,0,0,141.21,87.67Z"/><path d="M155.61,87.67a1.28,1.28,0,1,0-1.28-1.28A1.28,1.28,0,0,0,155.61,87.67Z"/><path d="M170,87.67a1.28,1.28,0,1,0-1.28-1.28A1.28,1.28,0,0,0,170,87.67Z"/><path d="M184.41,87.67a1.28,1.28,0,1,0-1.28-1.28A1.28,1.28,0,0,0,184.41,87.67Z"/><path d="M198.81,87.67a1.28,1.28,0,1,0-1.28-1.28A1.28,1.28,0,0,0,198.81,87.67Z"/><path d="M213.21,87.67a1.28,1.28,0,1,0-1.28-1.28A1.28,1.28,0,0,0,213.21,87.67Z"/><path d="M227.61,87.67a1.28,1.28,0,1,0-1.28-1.28A1.28,1.28,0,0,0,227.61,87.67Z"/><path d="M242,87.67a1.28,1.28,0,1,0-1.28-1.28A1.28,1.28,0,0,0,242,87.67Z"/><path d="M256.41,87.67a1.28,1.28,0,1,0-1.28-1.28A1.28,1.28,0,0,0,256.41,87.67Z"/><path d="M270.81,87.67a1.28,1.28,0,1,0-1.28-1.28A1.28,1.28,0,0,0,270.81,87.67Z"/><path d="M285.21,87.67a1.28,1.28,0,1,0-1.28-1.28A1.28,1.28,0,0,0,285.21,87.67Z"/><path d="M4.41,102.07a1.28,1.28,0,1,0-1.28-1.28A1.28,1.28,0,0,0,4.41,102.07Z"/><path d="M18.81,102.07a1.28,1.28,0,1,0-1.28-1.28A1.28,1.28,0,0,0,18.81,102.07Z"/><path d="M33.21,102.07a1.28,1.28,0,1,0-1.28-1.28A1.28,1.28,0,0,0,33.21,102.07Z"/><path d="M47.61,102.07a1.28,1.28,0,1,0-1.28-1.28A1.28,1.28,0,0,0,47.61,102.07Z"/><path d="M62,102.07a1.28,1.28,0,1,0-1.28-1.28A1.28,1.28,0,0,0,62,102.07Z"/><path d="M76.41,102.07a1.28,1.28,0,1,0-1.28-1.28A1.28,1.28,0,0,0,76.41,102.07Z"/><path d="M90.81,102.07a1.28,1.28,0,1,0-1.28-1.28A1.28,1.28,0,0,0,90.81,102.07Z"/><path d="M105.21,102.07a1.28,1.28,0,1,0-1.28-1.28A1.28,1.28,0,0,0,105.21,102.07Z"/><path d="M119.61,102.07a1.28,1.28,0,1,0-1.28-1.28A1.28,1.28,0,0,0,119.61,102.07Z"/><path d="M134,102.07a1.28,1.28,0,1,0-1.28-1.28A1.28,1.28,0,0,0,134,102.07Z"/><path d="M148.41,102.07a1.28,1.28,0,1,0-1.28-1.28A1.28,1.28,0,0,0,148.41,102.07Z"/><path d="M162.81,102.07a1.28,1.28,0,1,0-1.28-1.28A1.28,1.28,0,0,0,162.81,102.07Z"/><path d="M177.21,102.07a1.28,1.28,0,1,0-1.28-1.28A1.28,1.28,0,0,0,177.21,102.07Z"/><path d="M191.61,102.07a1.28,1.28,0,1,0-1.28-1.28A1.28,1.28,0,0,0,191.61,102.07Z"/><path d="M206,102.07a1.28,1.28,0,1,0-1.28-1.28A1.28,1.28,0,0,0,206,102.07Z"/><path d="M220.41,102.07a1.28,1.28,0,1,0-1.28-1.28A1.28,1.28,0,0,0,220.41,102.07Z"/><path d="M234.81,102.07a1.28,1.28,0,1,0-1.28-1.28A1.28,1.28,0,0,0,234.81,102.07Z"/><path d="M249.21,102.07a1.28,1.28,0,1,0-1.28-1.28A1.28,1.28,0,0,0,249.21,102.07Z"/><path d="M263.61,102.07a1.28,1.28,0,1,0-1.28-1.28A1.28,1.28,0,0,0,263.61,102.07Z"/><path d="M278,102.07a1.28,1.28,0,1,0-1.28-1.28A1.28,1.28,0,0,0,278,102.07Z"/><path d="M11.61,116.47a1.28,1.28,0,1,0-1.28-1.28A1.28,1.28,0,0,0,11.61,116.47Z"/><path d="M26,116.47a1.28,1.28,0,1,0-1.28-1.28A1.28,1.28,0,0,0,26,116.47Z"/><path d="M40.41,116.47a1.28,1.28,0,1,0-1.28-1.28A1.28,1.28,0,0,0,40.41,116.47Z"/><path d="M54.81,116.47a1.28,1.28,0,1,0-1.28-1.28A1.28,1.28,0,0,0,54.81,116.47Z"/><path d="M69.21,116.47a1.28,1.28,0,1,0-1.28-1.28A1.28,1.28,0,0,0,69.21,116.47Z"/><path d="M83.61,116.47a1.28,1.28,0,1,0-1.28-1.28A1.28,1.28,0,0,0,83.61,116.47Z"/><path d="M98,116.47a1.28,1.28,0,1,0-1.28-1.28A1.28,1.28,0,0,0,98,116.47Z"/><path d="M112.41,116.47a1.28,1.28,0,1,0-1.28-1.28A1.28,1.28,0,0,0,112.41,116.47Z"/><path d="M126.81,116.47a1.28,1.28,0,1,0-1.28-1.28A1.28,1.28,0,0,0,126.81,116.47Z"/><path d="M141.21,116.47a1.28,1.28,0,1,0-1.28-1.28A1.28,1.28,0,0,0,141.21,116.47Z"/><path d="M155.61,116.47a1.28,1.28,0,1,0-1.28-1.28A1.28,1.28,0,0,0,155.61,116.47Z"/><path d="M170,116.47a1.28,1.28,0,1,0-1.28-1.28A1.28,1.28,0,0,0,170,116.47Z"/><path d="M184.41,116.47a1.28,1.28,0,1,0-1.28-1.28A1.28,1.28,0,0,0,184.41,116.47Z"/><path d="M198.81,116.47a1.28,1.28,0,1,0-1.28-1.28A1.28,1.28,0,0,0,198.81,116.47Z"/><path d="M213.21,116.47a1.28,1.28,0,1,0-1.28-1.28A1.28,1.28,0,0,0,213.21,116.47Z"/><path d="M227.61,116.47a1.28,1.28,0,1,0-1.28-1.28A1.28,1.28,0,0,0,227.61,116.47Z"/><path d="M242,116.47a1.28,1.28,0,1,0-1.28-1.28A1.28,1.28,0,0,0,242,116.47Z"/><path d="M256.41,116.47a1.28,1.28,0,1,0-1.28-1.28A1.28,1.28,0,0,0,256.41,116.47Z"/><path d="M270.81,116.47a1.28,1.28,0,1,0-1.28-1.28A1.28,1.28,0,0,0,270.81,116.47Z"/><path d="M285.21,116.47a1.28,1.28,0,1,0-1.28-1.28A1.28,1.28,0,0,0,285.21,116.47Z"/><path d="M4.41,130.87a1.28,1.28,0,1,0-1.28-1.28A1.28,1.28,0,0,0,4.41,130.87Z"/><path d="M18.81,130.87a1.28,1.28,0,1,0-1.28-1.28A1.28,1.28,0,0,0,18.81,130.87Z"/><circle cx="33.21" cy="129.59" r="1.28"/><path d="M47.61,130.87a1.28,1.28,0,1,0-1.28-1.28A1.28,1.28,0,0,0,47.61,130.87Z"/><path d="M62,130.87a1.28,1.28,0,1,0-1.28-1.28A1.28,1.28,0,0,0,62,130.87Z"/><path d="M76.41,130.87a1.28,1.28,0,1,0-1.28-1.28A1.28,1.28,0,0,0,76.41,130.87Z"/><path d="M90.81,130.87a1.28,1.28,0,1,0-1.28-1.28A1.28,1.28,0,0,0,90.81,130.87Z"/><circle cx="105.21" cy="129.59" r="1.28"/><path d="M119.61,130.87a1.28,1.28,0,1,0-1.28-1.28A1.28,1.28,0,0,0,119.61,130.87Z"/><path d="M134,130.87a1.28,1.28,0,1,0-1.28-1.28A1.28,1.28,0,0,0,134,130.87Z"/><path d="M148.41,130.87a1.28,1.28,0,1,0-1.28-1.28A1.28,1.28,0,0,0,148.41,130.87Z"/><path d="M162.81,130.87a1.28,1.28,0,1,0-1.28-1.28A1.28,1.28,0,0,0,162.81,130.87Z"/><circle cx="177.21" cy="129.59" r="1.28"/><path d="M191.61,130.87a1.28,1.28,0,1,0-1.28-1.28A1.28,1.28,0,0,0,191.61,130.87Z"/><path d="M206,130.87a1.28,1.28,0,1,0-1.28-1.28A1.28,1.28,0,0,0,206,130.87Z"/><path d="M220.41,130.87a1.28,1.28,0,1,0-1.28-1.28A1.28,1.28,0,0,0,220.41,130.87Z"/><path d="M234.81,130.87a1.28,1.28,0,1,0-1.28-1.28A1.28,1.28,0,0,0,234.81,130.87Z"/><circle cx="249.21" cy="129.59" r="1.28"/><path d="M263.61,130.87a1.28,1.28,0,1,0-1.28-1.28A1.28,1.28,0,0,0,263.61,130.87Z"/><path d="M278,130.87a1.28,1.28,0,1,0-1.28-1.28A1.28,1.28,0,0,0,278,130.87Z"/><path d="M11.61,145.27A1.28,1.28,0,1,0,10.33,144,1.28,1.28,0,0,0,11.61,145.27Z"/><path d="M26,145.27A1.28,1.28,0,1,0,24.73,144,1.28,1.28,0,0,0,26,145.27Z"/><path d="M40.41,145.27A1.28,1.28,0,1,0,39.13,144,1.28,1.28,0,0,0,40.41,145.27Z"/><path d="M54.81,145.27A1.28,1.28,0,1,0,53.53,144,1.28,1.28,0,0,0,54.81,145.27Z"/><circle cx="69.21" cy="143.99" r="1.28"/><path d="M83.61,145.27A1.28,1.28,0,1,0,82.33,144,1.28,1.28,0,0,0,83.61,145.27Z"/><path d="M98,145.27A1.28,1.28,0,1,0,96.73,144,1.28,1.28,0,0,0,98,145.27Z"/><path d="M112.41,145.27a1.28,1.28,0,1,0-1.28-1.28A1.28,1.28,0,0,0,112.41,145.27Z"/><path d="M126.81,145.27a1.28,1.28,0,1,0-1.28-1.28A1.28,1.28,0,0,0,126.81,145.27Z"/><circle cx="141.21" cy="143.99" r="1.28"/><path d="M155.61,145.27a1.28,1.28,0,1,0-1.28-1.28A1.28,1.28,0,0,0,155.61,145.27Z"/><path d="M170,145.27a1.28,1.28,0,1,0-1.28-1.28A1.28,1.28,0,0,0,170,145.27Z"/><path d="M184.41,145.27a1.28,1.28,0,1,0-1.28-1.28A1.28,1.28,0,0,0,184.41,145.27Z"/><path d="M198.81,145.27a1.28,1.28,0,1,0-1.28-1.28A1.28,1.28,0,0,0,198.81,145.27Z"/><circle cx="213.21" cy="143.99" r="1.28"/><path d="M227.61,145.27a1.28,1.28,0,1,0-1.28-1.28A1.28,1.28,0,0,0,227.61,145.27Z"/><path d="M242,145.27a1.28,1.28,0,1,0-1.28-1.28A1.28,1.28,0,0,0,242,145.27Z"/><path d="M256.41,145.27a1.28,1.28,0,1,0-1.28-1.28A1.28,1.28,0,0,0,256.41,145.27Z"/><path d="M270.81,145.27a1.28,1.28,0,1,0-1.28-1.28A1.28,1.28,0,0,0,270.81,145.27Z"/><circle cx="285.21" cy="143.99" r="1.28"/><path d="M4.41,159.67a1.28,1.28,0,1,0-1.28-1.28A1.28,1.28,0,0,0,4.41,159.67Z"/><path d="M18.81,159.67a1.28,1.28,0,1,0-1.28-1.28A1.28,1.28,0,0,0,18.81,159.67Z"/><path d="M33.21,159.67a1.28,1.28,0,1,0-1.28-1.28A1.28,1.28,0,0,0,33.21,159.67Z"/><path d="M47.61,159.67a1.28,1.28,0,1,0-1.28-1.28A1.28,1.28,0,0,0,47.61,159.67Z"/><path d="M62,159.67a1.28,1.28,0,1,0-1.28-1.28A1.28,1.28,0,0,0,62,159.67Z"/><path d="M76.41,159.67a1.28,1.28,0,1,0-1.28-1.28A1.28,1.28,0,0,0,76.41,159.67Z"/><path d="M90.81,159.67a1.28,1.28,0,1,0-1.28-1.28A1.28,1.28,0,0,0,90.81,159.67Z"/><path d="M105.21,159.67a1.28,1.28,0,1,0-1.28-1.28A1.28,1.28,0,0,0,105.21,159.67Z"/><path d="M119.61,159.67a1.28,1.28,0,1,0-1.28-1.28A1.28,1.28,0,0,0,119.61,159.67Z"/><path d="M134,159.67a1.28,1.28,0,1,0-1.28-1.28A1.28,1.28,0,0,0,134,159.67Z"/><path d="M148.41,159.67a1.28,1.28,0,1,0-1.28-1.28A1.28,1.28,0,0,0,148.41,159.67Z"/><path d="M162.81,159.67a1.28,1.28,0,1,0-1.28-1.28A1.28,1.28,0,0,0,162.81,159.67Z"/><path d="M177.21,159.67a1.28,1.28,0,1,0-1.28-1.28A1.28,1.28,0,0,0,177.21,159.67Z"/><path d="M191.61,159.67a1.28,1.28,0,1,0-1.28-1.28A1.28,1.28,0,0,0,191.61,159.67Z"/><path d="M206,159.67a1.28,1.28,0,1,0-1.28-1.28A1.28,1.28,0,0,0,206,159.67Z"/><path d="M220.41,159.67a1.28,1.28,0,1,0-1.28-1.28A1.28,1.28,0,0,0,220.41,159.67Z"/><path d="M234.81,159.67a1.28,1.28,0,1,0-1.28-1.28A1.28,1.28,0,0,0,234.81,159.67Z"/><path d="M249.21,159.67a1.28,1.28,0,1,0-1.28-1.28A1.28,1.28,0,0,0,249.21,159.67Z"/><path d="M263.61,159.67a1.28,1.28,0,1,0-1.28-1.28A1.28,1.28,0,0,0,263.61,159.67Z"/><path d="M278,159.67a1.28,1.28,0,1,0-1.28-1.28A1.28,1.28,0,0,0,278,159.67Z"/><path d="M11.61,174.07a1.28,1.28,0,1,0-1.28-1.28A1.28,1.28,0,0,0,11.61,174.07Z"/><path d="M26,174.07a1.28,1.28,0,1,0-1.28-1.28A1.28,1.28,0,0,0,26,174.07Z"/><path d="M40.41,174.07a1.28,1.28,0,1,0-1.28-1.28A1.28,1.28,0,0,0,40.41,174.07Z"/><path d="M54.81,174.07a1.28,1.28,0,1,0-1.28-1.28A1.28,1.28,0,0,0,54.81,174.07Z"/><path d="M69.21,174.07a1.28,1.28,0,1,0-1.28-1.28A1.28,1.28,0,0,0,69.21,174.07Z"/><path d="M83.61,174.07a1.28,1.28,0,1,0-1.28-1.28A1.28,1.28,0,0,0,83.61,174.07Z"/><path d="M98,174.07a1.28,1.28,0,1,0-1.28-1.28A1.28,1.28,0,0,0,98,174.07Z"/><path d="M112.41,174.07a1.28,1.28,0,1,0-1.28-1.28A1.28,1.28,0,0,0,112.41,174.07Z"/><path d="M126.81,174.07a1.28,1.28,0,1,0-1.28-1.28A1.28,1.28,0,0,0,126.81,174.07Z"/><path d="M141.21,174.07a1.28,1.28,0,1,0-1.28-1.28A1.28,1.28,0,0,0,141.21,174.07Z"/><path d="M155.61,174.07a1.28,1.28,0,1,0-1.28-1.28A1.28,1.28,0,0,0,155.61,174.07Z"/><path d="M170,174.07a1.28,1.28,0,1,0-1.28-1.28A1.28,1.28,0,0,0,170,174.07Z"/><path d="M184.41,174.07a1.28,1.28,0,1,0-1.28-1.28A1.28,1.28,0,0,0,184.41,174.07Z"/><path d="M198.81,174.07a1.28,1.28,0,1,0-1.28-1.28A1.28,1.28,0,0,0,198.81,174.07Z"/><path d="M213.21,174.07a1.28,1.28,0,1,0-1.28-1.28A1.28,1.28,0,0,0,213.21,174.07Z"/><path d="M227.61,174.07a1.28,1.28,0,1,0-1.28-1.28A1.28,1.28,0,0,0,227.61,174.07Z"/><path d="M242,174.07a1.28,1.28,0,1,0-1.28-1.28A1.28,1.28,0,0,0,242,174.07Z"/><path d="M256.41,174.07a1.28,1.28,0,1,0-1.28-1.28A1.28,1.28,0,0,0,256.41,174.07Z"/><path d="M270.81,174.07a1.28,1.28,0,1,0-1.28-1.28A1.28,1.28,0,0,0,270.81,174.07Z"/><path d="M285.21,174.07a1.28,1.28,0,1,0-1.28-1.28A1.28,1.28,0,0,0,285.21,174.07Z"/><path d="M4.41,188.47a1.28,1.28,0,1,0-1.28-1.28A1.28,1.28,0,0,0,4.41,188.47Z"/><path d="M18.81,188.47a1.28,1.28,0,1,0-1.28-1.28A1.28,1.28,0,0,0,18.81,188.47Z"/><path d="M33.21,188.47a1.28,1.28,0,1,0-1.28-1.28A1.28,1.28,0,0,0,33.21,188.47Z"/><path d="M47.61,188.47a1.28,1.28,0,1,0-1.28-1.28A1.28,1.28,0,0,0,47.61,188.47Z"/><path d="M62,188.47a1.28,1.28,0,1,0-1.28-1.28A1.28,1.28,0,0,0,62,188.47Z"/><path d="M76.41,188.47a1.28,1.28,0,1,0-1.28-1.28A1.28,1.28,0,0,0,76.41,188.47Z"/><path d="M90.81,188.47a1.28,1.28,0,1,0-1.28-1.28A1.28,1.28,0,0,0,90.81,188.47Z"/><path d="M105.21,188.47a1.28,1.28,0,1,0-1.28-1.28A1.28,1.28,0,0,0,105.21,188.47Z"/><path d="M119.61,188.47a1.28,1.28,0,1,0-1.28-1.28A1.28,1.28,0,0,0,119.61,188.47Z"/><path d="M134,188.47a1.28,1.28,0,1,0-1.28-1.28A1.28,1.28,0,0,0,134,188.47Z"/><path d="M148.41,188.47a1.28,1.28,0,1,0-1.28-1.28A1.28,1.28,0,0,0,148.41,188.47Z"/><path d="M162.81,188.47a1.28,1.28,0,1,0-1.28-1.28A1.28,1.28,0,0,0,162.81,188.47Z"/><path d="M177.21,188.47a1.28,1.28,0,1,0-1.28-1.28A1.28,1.28,0,0,0,177.21,188.47Z"/><path d="M191.61,188.47a1.28,1.28,0,1,0-1.28-1.28A1.28,1.28,0,0,0,191.61,188.47Z"/><path d="M206,188.47a1.28,1.28,0,1,0-1.28-1.28A1.28,1.28,0,0,0,206,188.47Z"/><path d="M220.41,188.47a1.28,1.28,0,1,0-1.28-1.28A1.28,1.28,0,0,0,220.41,188.47Z"/><path d="M234.81,188.47a1.28,1.28,0,1,0-1.28-1.28A1.28,1.28,0,0,0,234.81,188.47Z"/><path d="M249.21,188.47a1.28,1.28,0,1,0-1.28-1.28A1.28,1.28,0,0,0,249.21,188.47Z"/><path d="M263.61,188.47a1.28,1.28,0,1,0-1.28-1.28A1.28,1.28,0,0,0,263.61,188.47Z"/><path d="M278,188.47a1.28,1.28,0,1,0-1.28-1.28A1.28,1.28,0,0,0,278,188.47Z"/><path d="M11.61,202.87a1.28,1.28,0,1,0-1.28-1.28A1.28,1.28,0,0,0,11.61,202.87Z"/><path d="M26,202.87a1.28,1.28,0,1,0-1.28-1.28A1.28,1.28,0,0,0,26,202.87Z"/><path d="M40.41,202.87a1.28,1.28,0,1,0-1.28-1.28A1.28,1.28,0,0,0,40.41,202.87Z"/><path d="M54.81,202.87a1.28,1.28,0,1,0-1.28-1.28A1.28,1.28,0,0,0,54.81,202.87Z"/><circle cx="69.21" cy="201.59" r="1.28"/><path d="M83.61,202.87a1.28,1.28,0,1,0-1.28-1.28A1.28,1.28,0,0,0,83.61,202.87Z"/><path d="M98,202.87a1.28,1.28,0,1,0-1.28-1.28A1.28,1.28,0,0,0,98,202.87Z"/><path d="M112.41,202.87a1.28,1.28,0,1,0-1.28-1.28A1.28,1.28,0,0,0,112.41,202.87Z"/><path d="M126.81,202.87a1.28,1.28,0,1,0-1.28-1.28A1.28,1.28,0,0,0,126.81,202.87Z"/><circle cx="141.21" cy="201.59" r="1.28"/><path d="M155.61,202.87a1.28,1.28,0,1,0-1.28-1.28A1.28,1.28,0,0,0,155.61,202.87Z"/><path d="M170,202.87a1.28,1.28,0,1,0-1.28-1.28A1.28,1.28,0,0,0,170,202.87Z"/><path d="M184.41,202.87a1.28,1.28,0,1,0-1.28-1.28A1.28,1.28,0,0,0,184.41,202.87Z"/><path d="M198.81,202.87a1.28,1.28,0,1,0-1.28-1.28A1.28,1.28,0,0,0,198.81,202.87Z"/><circle cx="213.21" cy="201.59" r="1.28"/><path d="M227.61,202.87a1.28,1.28,0,1,0-1.28-1.28A1.28,1.28,0,0,0,227.61,202.87Z"/><path d="M242,202.87a1.28,1.28,0,1,0-1.28-1.28A1.28,1.28,0,0,0,242,202.87Z"/><path d="M256.41,202.87a1.28,1.28,0,1,0-1.28-1.28A1.28,1.28,0,0,0,256.41,202.87Z"/><path d="M270.81,202.87a1.28,1.28,0,1,0-1.28-1.28A1.28,1.28,0,0,0,270.81,202.87Z"/><circle cx="285.21" cy="201.59" r="1.28"/><path d="M4.41,217.27A1.28,1.28,0,1,0,3.13,216,1.28,1.28,0,0,0,4.41,217.27Z"/><path d="M18.81,217.27A1.28,1.28,0,1,0,17.53,216,1.28,1.28,0,0,0,18.81,217.27Z"/><circle cx="33.21" cy="215.99" r="1.28"/><path d="M47.61,217.27A1.28,1.28,0,1,0,46.33,216,1.28,1.28,0,0,0,47.61,217.27Z"/><path d="M62,217.27A1.28,1.28,0,1,0,60.73,216,1.28,1.28,0,0,0,62,217.27Z"/><path d="M76.41,217.27A1.28,1.28,0,1,0,75.13,216,1.28,1.28,0,0,0,76.41,217.27Z"/><path d="M90.81,217.27A1.28,1.28,0,1,0,89.53,216,1.28,1.28,0,0,0,90.81,217.27Z"/><circle cx="105.21" cy="215.99" r="1.28"/><path d="M119.61,217.27a1.28,1.28,0,1,0-1.28-1.28A1.28,1.28,0,0,0,119.61,217.27Z"/><path d="M134,217.27a1.28,1.28,0,1,0-1.28-1.28A1.28,1.28,0,0,0,134,217.27Z"/><path d="M148.41,217.27a1.28,1.28,0,1,0-1.28-1.28A1.28,1.28,0,0,0,148.41,217.27Z"/><path d="M162.81,217.27a1.28,1.28,0,1,0-1.28-1.28A1.28,1.28,0,0,0,162.81,217.27Z"/><circle cx="177.21" cy="215.99" r="1.28"/><path d="M191.61,217.27a1.28,1.28,0,1,0-1.28-1.28A1.28,1.28,0,0,0,191.61,217.27Z"/><path d="M206,217.27a1.28,1.28,0,1,0-1.28-1.28A1.28,1.28,0,0,0,206,217.27Z"/><path d="M220.41,217.27a1.28,1.28,0,1,0-1.28-1.28A1.28,1.28,0,0,0,220.41,217.27Z"/><path d="M234.81,217.27a1.28,1.28,0,1,0-1.28-1.28A1.28,1.28,0,0,0,234.81,217.27Z"/><circle cx="249.21" cy="215.99" r="1.28"/><path d="M263.61,217.27a1.28,1.28,0,1,0-1.28-1.28A1.28,1.28,0,0,0,263.61,217.27Z"/><path d="M278,217.27a1.28,1.28,0,1,0-1.28-1.28A1.28,1.28,0,0,0,278,217.27Z"/><path d="M11.61,231.67a1.28,1.28,0,1,0-1.28-1.28A1.28,1.28,0,0,0,11.61,231.67Z"/><path d="M26,231.67a1.28,1.28,0,1,0-1.28-1.28A1.28,1.28,0,0,0,26,231.67Z"/><path d="M40.41,231.67a1.28,1.28,0,1,0-1.28-1.28A1.28,1.28,0,0,0,40.41,231.67Z"/><path d="M54.81,231.67a1.28,1.28,0,1,0-1.28-1.28A1.28,1.28,0,0,0,54.81,231.67Z"/><path d="M69.21,231.67a1.28,1.28,0,1,0-1.28-1.28A1.28,1.28,0,0,0,69.21,231.67Z"/><path d="M83.61,231.67a1.28,1.28,0,1,0-1.28-1.28A1.28,1.28,0,0,0,83.61,231.67Z"/><path d="M98,231.67a1.28,1.28,0,1,0-1.28-1.28A1.28,1.28,0,0,0,98,231.67Z"/><path d="M112.41,231.67a1.28,1.28,0,1,0-1.28-1.28A1.28,1.28,0,0,0,112.41,231.67Z"/><path d="M126.81,231.67a1.28,1.28,0,1,0-1.28-1.28A1.28,1.28,0,0,0,126.81,231.67Z"/><path d="M141.21,231.67a1.28,1.28,0,1,0-1.28-1.28A1.28,1.28,0,0,0,141.21,231.67Z"/><path d="M155.61,231.67a1.28,1.28,0,1,0-1.28-1.28A1.28,1.28,0,0,0,155.61,231.67Z"/><path d="M170,231.67a1.28,1.28,0,1,0-1.28-1.28A1.28,1.28,0,0,0,170,231.67Z"/><path d="M184.41,231.67a1.28,1.28,0,1,0-1.28-1.28A1.28,1.28,0,0,0,184.41,231.67Z"/><path d="M198.81,231.67a1.28,1.28,0,1,0-1.28-1.28A1.28,1.28,0,0,0,198.81,231.67Z"/><path d="M213.21,231.67a1.28,1.28,0,1,0-1.28-1.28A1.28,1.28,0,0,0,213.21,231.67Z"/><path d="M227.61,231.67a1.28,1.28,0,1,0-1.28-1.28A1.28,1.28,0,0,0,227.61,231.67Z"/><path d="M242,231.67a1.28,1.28,0,1,0-1.28-1.28A1.28,1.28,0,0,0,242,231.67Z"/><path d="M256.41,231.67a1.28,1.28,0,1,0-1.28-1.28A1.28,1.28,0,0,0,256.41,231.67Z"/><path d="M270.81,231.67a1.28,1.28,0,1,0-1.28-1.28A1.28,1.28,0,0,0,270.81,231.67Z"/><path d="M285.21,231.67a1.28,1.28,0,1,0-1.28-1.28A1.28,1.28,0,0,0,285.21,231.67Z"/><path d="M4.41,246.07a1.28,1.28,0,1,0-1.28-1.28A1.28,1.28,0,0,0,4.41,246.07Z"/><path d="M18.81,246.07a1.28,1.28,0,1,0-1.28-1.28A1.28,1.28,0,0,0,18.81,246.07Z"/><path d="M33.21,246.07a1.28,1.28,0,1,0-1.28-1.28A1.28,1.28,0,0,0,33.21,246.07Z"/><path d="M47.61,246.07a1.28,1.28,0,1,0-1.28-1.28A1.28,1.28,0,0,0,47.61,246.07Z"/><path d="M62,246.07a1.28,1.28,0,1,0-1.28-1.28A1.28,1.28,0,0,0,62,246.07Z"/><path d="M76.41,246.07a1.28,1.28,0,1,0-1.28-1.28A1.28,1.28,0,0,0,76.41,246.07Z"/><path d="M90.81,246.07a1.28,1.28,0,1,0-1.28-1.28A1.28,1.28,0,0,0,90.81,246.07Z"/><path d="M105.21,246.07a1.28,1.28,0,1,0-1.28-1.28A1.28,1.28,0,0,0,105.21,246.07Z"/><path d="M119.61,246.07a1.28,1.28,0,1,0-1.28-1.28A1.28,1.28,0,0,0,119.61,246.07Z"/><path d="M134,246.07a1.28,1.28,0,1,0-1.28-1.28A1.28,1.28,0,0,0,134,246.07Z"/><path d="M148.41,246.07a1.28,1.28,0,1,0-1.28-1.28A1.28,1.28,0,0,0,148.41,246.07Z"/><path d="M162.81,246.07a1.28,1.28,0,1,0-1.28-1.28A1.28,1.28,0,0,0,162.81,246.07Z"/><path d="M177.21,246.07a1.28,1.28,0,1,0-1.28-1.28A1.28,1.28,0,0,0,177.21,246.07Z"/><path d="M191.61,246.07a1.28,1.28,0,1,0-1.28-1.28A1.28,1.28,0,0,0,191.61,246.07Z"/><path d="M206,246.07a1.28,1.28,0,1,0-1.28-1.28A1.28,1.28,0,0,0,206,246.07Z"/><path d="M220.41,246.07a1.28,1.28,0,1,0-1.28-1.28A1.28,1.28,0,0,0,220.41,246.07Z"/><path d="M234.81,246.07a1.28,1.28,0,1,0-1.28-1.28A1.28,1.28,0,0,0,234.81,246.07Z"/><path d="M249.21,246.07a1.28,1.28,0,1,0-1.28-1.28A1.28,1.28,0,0,0,249.21,246.07Z"/><path d="M263.61,246.07a1.28,1.28,0,1,0-1.28-1.28A1.28,1.28,0,0,0,263.61,246.07Z"/><path d="M278,246.07a1.28,1.28,0,1,0-1.28-1.28A1.28,1.28,0,0,0,278,246.07Z"/><path d="M11.61,260.47a1.28,1.28,0,1,0-1.28-1.28A1.28,1.28,0,0,0,11.61,260.47Z"/><path d="M26,260.47a1.28,1.28,0,1,0-1.28-1.28A1.28,1.28,0,0,0,26,260.47Z"/><path d="M40.41,260.47a1.28,1.28,0,1,0-1.28-1.28A1.28,1.28,0,0,0,40.41,260.47Z"/><path d="M54.81,260.47a1.28,1.28,0,1,0-1.28-1.28A1.28,1.28,0,0,0,54.81,260.47Z"/><path d="M69.21,260.47a1.28,1.28,0,1,0-1.28-1.28A1.28,1.28,0,0,0,69.21,260.47Z"/><path d="M83.61,260.47a1.28,1.28,0,1,0-1.28-1.28A1.28,1.28,0,0,0,83.61,260.47Z"/><path d="M98,260.47a1.28,1.28,0,1,0-1.28-1.28A1.28,1.28,0,0,0,98,260.47Z"/><path d="M112.41,260.47a1.28,1.28,0,1,0-1.28-1.28A1.28,1.28,0,0,0,112.41,260.47Z"/><path d="M126.81,260.47a1.28,1.28,0,1,0-1.28-1.28A1.28,1.28,0,0,0,126.81,260.47Z"/><path d="M141.21,260.47a1.28,1.28,0,1,0-1.28-1.28A1.28,1.28,0,0,0,141.21,260.47Z"/><path d="M155.61,260.47a1.28,1.28,0,1,0-1.28-1.28A1.28,1.28,0,0,0,155.61,260.47Z"/><path d="M170,260.47a1.28,1.28,0,1,0-1.28-1.28A1.28,1.28,0,0,0,170,260.47Z"/><path d="M184.41,260.47a1.28,1.28,0,1,0-1.28-1.28A1.28,1.28,0,0,0,184.41,260.47Z"/><path d="M198.81,260.47a1.28,1.28,0,1,0-1.28-1.28A1.28,1.28,0,0,0,198.81,260.47Z"/><path d="M213.21,260.47a1.28,1.28,0,1,0-1.28-1.28A1.28,1.28,0,0,0,213.21,260.47Z"/><path d="M227.61,260.47a1.28,1.28,0,1,0-1.28-1.28A1.28,1.28,0,0,0,227.61,260.47Z"/><path d="M242,260.47a1.28,1.28,0,1,0-1.28-1.28A1.28,1.28,0,0,0,242,260.47Z"/><path d="M256.41,260.47a1.28,1.28,0,1,0-1.28-1.28A1.28,1.28,0,0,0,256.41,260.47Z"/><path d="M270.81,260.47a1.28,1.28,0,1,0-1.28-1.28A1.28,1.28,0,0,0,270.81,260.47Z"/><path d="M285.21,260.47a1.28,1.28,0,1,0-1.28-1.28A1.28,1.28,0,0,0,285.21,260.47Z"/><path d="M4.41,274.87a1.28,1.28,0,1,0-1.28-1.28A1.28,1.28,0,0,0,4.41,274.87Z"/><path d="M18.81,274.87a1.28,1.28,0,1,0-1.28-1.28A1.28,1.28,0,0,0,18.81,274.87Z"/><circle cx="33.21" cy="273.59" r="1.28"/><path d="M47.61,274.87a1.28,1.28,0,1,0-1.28-1.28A1.28,1.28,0,0,0,47.61,274.87Z"/><path d="M62,274.87a1.28,1.28,0,1,0-1.28-1.28A1.28,1.28,0,0,0,62,274.87Z"/><path d="M76.41,274.87a1.28,1.28,0,1,0-1.28-1.28A1.28,1.28,0,0,0,76.41,274.87Z"/><path d="M90.81,274.87a1.28,1.28,0,1,0-1.28-1.28A1.28,1.28,0,0,0,90.81,274.87Z"/><circle cx="105.21" cy="273.59" r="1.28"/><path d="M119.61,274.87a1.28,1.28,0,1,0-1.28-1.28A1.28,1.28,0,0,0,119.61,274.87Z"/><path d="M134,274.87a1.28,1.28,0,1,0-1.28-1.28A1.28,1.28,0,0,0,134,274.87Z"/><path d="M148.41,274.87a1.28,1.28,0,1,0-1.28-1.28A1.28,1.28,0,0,0,148.41,274.87Z"/><path d="M162.81,274.87a1.28,1.28,0,1,0-1.28-1.28A1.28,1.28,0,0,0,162.81,274.87Z"/><circle cx="177.21" cy="273.59" r="1.28"/><path d="M191.61,274.87a1.28,1.28,0,1,0-1.28-1.28A1.28,1.28,0,0,0,191.61,274.87Z"/><path d="M206,274.87a1.28,1.28,0,1,0-1.28-1.28A1.28,1.28,0,0,0,206,274.87Z"/><path d="M220.41,274.87a1.28,1.28,0,1,0-1.28-1.28A1.28,1.28,0,0,0,220.41,274.87Z"/><path d="M234.81,274.87a1.28,1.28,0,1,0-1.28-1.28A1.28,1.28,0,0,0,234.81,274.87Z"/><circle cx="249.21" cy="273.59" r="1.28"/><path d="M263.61,274.87a1.28,1.28,0,1,0-1.28-1.28A1.28,1.28,0,0,0,263.61,274.87Z"/><path d="M278,274.87a1.28,1.28,0,1,0-1.28-1.28A1.28,1.28,0,0,0,278,274.87Z"/><path d="M11.61,289.27A1.28,1.28,0,1,0,10.33,288,1.28,1.28,0,0,0,11.61,289.27Z"/><path d="M26,289.27A1.28,1.28,0,1,0,24.73,288,1.28,1.28,0,0,0,26,289.27Z"/><path d="M40.41,289.27A1.28,1.28,0,1,0,39.13,288,1.28,1.28,0,0,0,40.41,289.27Z"/><path d="M54.81,289.27A1.28,1.28,0,1,0,53.53,288,1.28,1.28,0,0,0,54.81,289.27Z"/><circle cx="69.21" cy="287.99" r="1.28"/><path d="M83.61,289.27A1.28,1.28,0,1,0,82.33,288,1.28,1.28,0,0,0,83.61,289.27Z"/><path d="M98,289.27A1.28,1.28,0,1,0,96.73,288,1.28,1.28,0,0,0,98,289.27Z"/><path d="M112.41,289.27a1.28,1.28,0,1,0-1.28-1.28A1.28,1.28,0,0,0,112.41,289.27Z"/><path d="M126.81,289.27a1.28,1.28,0,1,0-1.28-1.28A1.28,1.28,0,0,0,126.81,289.27Z"/><circle cx="141.21" cy="287.99" r="1.28"/><path d="M155.61,289.27a1.28,1.28,0,1,0-1.28-1.28A1.28,1.28,0,0,0,155.61,289.27Z"/><path d="M170,289.27a1.28,1.28,0,1,0-1.28-1.28A1.28,1.28,0,0,0,170,289.27Z"/><path d="M184.41,289.27a1.28,1.28,0,1,0-1.28-1.28A1.28,1.28,0,0,0,184.41,289.27Z"/><path d="M198.81,289.27a1.28,1.28,0,1,0-1.28-1.28A1.28,1.28,0,0,0,198.81,289.27Z"/><circle cx="213.21" cy="287.99" r="1.28"/><path d="M227.61,289.27a1.28,1.28,0,1,0-1.28-1.28A1.28,1.28,0,0,0,227.61,289.27Z"/><path d="M242,289.27a1.28,1.28,0,1,0-1.28-1.28A1.28,1.28,0,0,0,242,289.27Z"/><path d="M256.41,289.27a1.28,1.28,0,1,0-1.28-1.28A1.28,1.28,0,0,0,256.41,289.27Z"/><path d="M270.81,289.27a1.28,1.28,0,1,0-1.28-1.28A1.28,1.28,0,0,0,270.81,289.27Z"/><circle cx="285.21" cy="287.99" r="1.28"/></g></g></g></svg>