<svg xmlns="http://www.w3.org/2000/svg" viewBox="0 0 187.58 205.99"><defs><style>.cls-1{fill:#4059a3;}</style></defs><g id="Layer_2" data-name="Layer 2"><g id="Layer_1-2" data-name="Layer 1"><path class="cls-1" d="M148.84,130.21h0A8.8,8.8,0,0,1,140,121.4V84.59a8.8,8.8,0,0,1,8.81-8.81h0a8.8,8.8,0,0,1,8.81,8.81V121.4A8.8,8.8,0,0,1,148.84,130.21Z"/><path class="cls-1" d="M45.79,146h0a8.8,8.8,0,0,0,8.81-8.81V68.78A8.81,8.81,0,0,0,45.79,60h0A8.81,8.81,0,0,0,37,68.78v68.43A8.8,8.8,0,0,0,45.79,146Z"/><rect class="cls-1" y="84.69" width="17.63" height="36.61" rx="8.81" transform="translate(17.63 205.99) rotate(180)"/><path class="cls-1" d="M113.61,29.84h-2.74a7.45,7.45,0,0,0-7.44,7.45V51.56a6.91,6.91,0,0,1-6.91,6.91h0a6.91,6.91,0,0,1-6.91-6.91V9A9,9,0,0,0,81,0a8.81,8.81,0,0,0-9,8.81V197a8.94,8.94,0,0,0,8.58,9,8.81,8.81,0,0,0,9-8.81V154.43a6.91,6.91,0,0,1,6.91-6.91h0a6.92,6.92,0,0,1,6.91,6.91v14.28a7.44,7.44,0,0,0,7.44,7.44h2.74a7.44,7.44,0,0,0,7.44-7.44V37.29A7.45,7.45,0,0,0,113.61,29.84Zm-9.14,96.46a6.11,6.11,0,0,1-6.11,6.11h0a6.12,6.12,0,0,1-6.11-6.11V77.54a6.12,6.12,0,0,1,6.11-6.11h0a6.11,6.11,0,0,1,6.11,6.11Z"/><circle class="cls-1" cx="179.32" cy="103" r="8.26" transform="translate(-25.76 76.46) rotate(-22.5)"/></g></g></svg>